<svg width="2411" height="379" viewBox="0 0 2411 379" fill="none" xmlns="http://www.w3.org/2000/svg">
<path d="M3.38553 101.498L84.492 20.3858C89.006 15.8714 96.303 15.8714 100.803 20.3858C105.317 24.9001 105.317 32.1976 100.803 36.6976L19.7109 117.795C17.4612 120.045 14.5047 121.17 11.5486 121.17C8.59253 121.17 5.65011 120.045 3.38627 117.795C-1.12777 113.281 -1.12777 105.983 3.38627 101.483L3.38553 101.498ZM198.707 36.7123C203.221 32.198 203.221 24.9005 198.707 20.4005C194.193 15.8862 186.896 15.8862 182.396 20.4005L3.38553 199.395C-1.12851 203.909 -1.12851 211.206 3.38553 215.706C5.63527 217.956 8.59179 219.081 11.5479 219.081C14.5039 219.081 17.4463 217.956 19.7102 215.706L198.707 36.7123ZM282.756 34.2461C278.242 29.7317 270.945 29.7317 266.445 34.2461L17.23 283.449C12.716 287.964 12.716 295.261 17.23 299.761C19.4797 302.011 22.4363 303.136 25.3923 303.136C28.3484 303.136 31.2908 302.011 33.5547 299.761L282.755 50.5579C287.269 46.0435 287.27 38.7461 282.756 34.2461ZM280.29 118.301L101.294 297.31C96.7797 301.824 96.7797 309.122 101.294 313.621C103.543 315.871 106.5 316.996 109.456 316.996C112.412 316.996 115.355 315.871 117.618 313.621L296.614 134.613C301.129 130.098 301.129 122.801 296.614 118.301C292.1 113.787 284.803 113.787 280.304 118.301H280.29ZM280.29 216.216L199.198 297.313C194.684 301.828 194.684 309.125 199.198 313.625C201.448 315.875 204.404 317 207.36 317C210.317 317 213.259 315.875 215.523 313.625L296.614 232.528C301.129 228.013 301.129 220.716 296.614 216.216C292.1 211.702 284.803 211.702 280.304 216.216H280.29Z" fill="#060606"/>
<path d="M2401.22 247.6C2407.22 247.6 2410.82 253.6 2410.82 258C2410.82 261.2 2409.62 264.4 2407.22 268.4C2394.02 289.2 2357.22 314 2308.42 314C2246.82 314 2200.82 272.4 2200.82 207.6C2200.82 141.2 2252.42 98 2311.22 98C2368.42 98 2402.82 138.8 2402.82 178C2402.82 189.6 2399.22 191.6 2392.02 194L2272.02 230.8C2284.42 256 2307.22 274.4 2336.42 274.4C2356.42 274.4 2372.82 266.8 2387.62 254.4C2394.02 249.6 2397.22 247.6 2401.22 247.6ZM2302.82 128.4C2278.82 128.4 2261.62 150 2261.62 185.2C2261.62 191.6 2262.02 198 2263.22 204L2332.02 181.6C2338.42 179.6 2341.62 176.4 2341.62 169.2C2341.62 150.8 2325.62 128.4 2302.82 128.4Z" fill="#060606"/>
<path d="M2164.77 254.4C2169.17 290 2191.17 279.2 2191.17 296.4C2191.17 302.8 2185.57 306.8 2176.77 306.8C2166.37 306.8 2157.97 305.6 2137.17 305.6C2115.57 305.6 2107.57 306.8 2097.17 306.8C2086.77 306.8 2081.97 302 2081.97 295.6C2081.97 280.8 2105.17 286.4 2105.17 264.8C2105.17 260.8 2104.37 254.4 2103.17 246.8L2095.97 194.8C2091.97 167.6 2082.77 147.2 2059.97 147.2C2042.77 147.2 2022.77 160.8 2022.77 200.8V259.2C2022.77 288.8 2046.37 280 2046.37 296C2046.37 301.2 2042.37 307.2 2033.17 307.2C2023.57 307.2 2012.77 306 1992.77 306C1972.77 306 1962.37 307.2 1952.77 307.2C1943.17 307.2 1939.17 301.6 1939.17 296C1939.17 280 1962.77 288.8 1962.77 259.2V174.8C1962.77 149.2 1936.37 160.4 1936.37 142.8C1936.37 134 1946.37 128.4 1974.77 116C2001.17 104 2005.97 102.8 2010.37 102.8C2019.97 102.8 2022.77 110.8 2022.77 122V141.2C2035.17 120 2057.97 101.6 2089.17 101.6C2130.37 101.6 2149.17 136.8 2154.77 180L2164.77 254.4Z" fill="#060606"/>
<path d="M1848.69 74.8C1831.09 74.8 1819.09 64.8 1819.09 49.6C1819.09 29.6 1840.29 8 1867.89 8C1884.69 8 1899.09 18.8 1899.09 34.8C1899.09 54.4 1875.89 74.8 1848.69 74.8ZM1822.69 307.2C1813.09 307.2 1809.09 301.6 1809.09 296C1809.09 280 1832.69 288.8 1832.69 259.2V174.8C1832.69 149.2 1806.29 160.4 1806.29 142.8C1806.29 134 1816.29 128.4 1844.69 116C1871.09 104 1875.89 102.8 1880.29 102.8C1889.89 102.8 1892.69 110.8 1892.69 122V259.2C1892.69 288.8 1916.29 280 1916.29 296C1916.29 301.2 1912.29 307.2 1903.09 307.2C1893.49 307.2 1882.69 306 1862.69 306C1842.69 306 1832.29 307.2 1822.69 307.2Z" fill="#060606"/>
<path d="M1692.12 307.2C1682.52 307.2 1678.52 301.6 1678.52 296C1678.52 280 1701.72 288.8 1701.72 259.2V72.3998C1701.72 47.1998 1675.32 58.3998 1675.32 40.3998C1675.32 31.5998 1685.72 26.3998 1713.72 13.5998C1740.12 1.99979 1745.32 0.799805 1749.32 0.799805C1758.92 0.799805 1761.72 8.3998 1761.72 19.9998V259.2C1761.72 288.8 1785.72 280 1785.72 296C1785.72 301.2 1781.72 307.2 1772.12 307.2C1762.92 307.2 1752.12 306 1731.72 306C1711.72 306 1701.72 307.2 1692.12 307.2Z" fill="#060606"/>
<path d="M1631.03 101.2C1653.43 101.2 1668.23 114 1668.23 128.4C1668.23 139.6 1663.03 154.4 1654.63 174.4C1651.43 182.4 1647.03 187.2 1640.23 187.2C1633.83 187.2 1629.83 182 1626.63 175.6C1619.43 161.2 1612.63 152.8 1601.83 152.8C1586.23 152.8 1561.83 174 1561.83 222.4V259.2C1561.83 288.8 1590.63 278.4 1590.63 296C1590.63 301.2 1586.63 307.2 1577.03 307.2C1566.63 307.2 1554.23 306 1531.83 306C1511.83 306 1501.43 307.2 1491.83 307.2C1482.23 307.2 1478.23 301.6 1478.23 296C1478.23 280 1501.83 288.8 1501.83 259.2V174.8C1501.83 149.2 1475.43 160.4 1475.43 142.8C1475.43 134 1485.43 128.4 1513.83 116C1540.23 104 1545.03 102.8 1549.43 102.8C1559.03 102.8 1561.83 110.8 1561.83 122V154.8C1573.83 124.4 1602.23 101.2 1631.03 101.2Z" fill="#060606"/>
<path d="M1446.92 247.6C1452.92 247.6 1456.52 253.6 1456.52 258C1456.52 261.2 1455.32 264.4 1452.92 268.4C1439.72 289.2 1402.92 314 1354.12 314C1292.52 314 1246.52 272.4 1246.52 207.6C1246.52 141.2 1298.12 98 1356.92 98C1414.12 98 1448.52 138.8 1448.52 178C1448.52 189.6 1444.92 191.6 1437.72 194L1317.72 230.8C1330.12 256 1352.92 274.4 1382.12 274.4C1402.12 274.4 1418.52 266.8 1433.32 254.4C1439.72 249.6 1442.92 247.6 1446.92 247.6ZM1348.52 128.4C1324.52 128.4 1307.32 150 1307.32 185.2C1307.32 191.6 1307.72 198 1308.92 204L1377.72 181.6C1384.12 179.6 1387.32 176.4 1387.32 169.2C1387.32 150.8 1371.32 128.4 1348.52 128.4Z" fill="#060606"/>
<path d="M1134.59 99.5996C1185.79 99.5996 1224.59 140.4 1224.59 204.8C1224.59 269.2 1180.19 312.4 1122.19 312.4C1089.79 312.4 1072.59 302.8 1060.19 292.4V330.8C1060.19 360 1088.19 350.4 1088.19 368C1088.19 373.2 1083.79 378.8 1074.59 378.8C1064.59 378.8 1051.79 377.6 1030.19 377.6C1010.19 377.6 1000.19 378.8 990.588 378.8C980.988 378.8 976.987 373.2 976.987 368C976.987 351.6 1000.19 360.4 1000.19 330.8V174.8C1000.19 149.2 974.188 160.4 974.188 142.8C974.188 133.6 984.188 128.4 1012.59 116C1038.59 104 1042.59 102.8 1047.79 102.8C1059.39 102.8 1060.19 116 1060.19 122V139.2C1075.39 117.2 1099.79 99.5996 1134.59 99.5996ZM1113.79 282.4C1140.19 282.4 1160.99 261.6 1160.99 220C1160.99 174 1137.39 141.6 1107.39 141.6C1081.39 141.6 1060.19 164.4 1060.19 199.2V214.8C1060.19 253.2 1081.79 282.4 1113.79 282.4Z" fill="#060606"/>
<path d="M929.837 244C929.837 269.6 961.037 266 961.037 280.8C961.037 292 951.437 295.6 917.837 302.8C895.037 308 887.037 309.2 882.637 309.2C873.437 309.2 869.837 301.6 869.837 292.8V271.2C857.037 292.4 834.237 310.8 800.637 310.8C758.637 310.8 731.437 283.6 731.437 234V172C731.437 146.8 701.837 154.4 701.837 138C701.837 128 711.437 123.6 742.637 113.2C769.037 104 775.037 102.8 778.637 102.8C789.437 102.8 791.437 112.8 791.437 122.4V217.2C791.437 249.6 802.637 265.6 827.437 265.6C847.837 265.6 869.837 251.2 869.837 211.6V172C869.837 146.8 836.237 155.2 836.237 138C836.237 128.4 846.237 124 881.037 112.8C906.237 104.4 913.837 102.8 917.437 102.8C928.637 102.8 929.837 113.6 929.837 122.4V244Z" fill="#060606"/>
<path d="M483.2 314.8C474.4 314.8 470 307.2 464.8 296L447.6 258.8C438.8 240 434.4 230 434.4 222C434.4 213.2 440 208.4 446 208.4C453.2 208.4 458.4 214.4 463.2 219.2C490 247.6 525.2 278.8 574 278.8C610.8 278.8 629.6 261.6 629.6 238C629.6 207.2 599.2 198.4 554.8 185.6C504.4 171.2 444 151.2 444 92.4C444 47.6 482.8 14.8 533.6 14.8C566.4 14.8 582.8 24.4 592 24.4C601.6 24.4 602 12 612.8 12C623.6 12 627.2 21.6 637.2 37.6L648 56C661.2 77.6 665.2 88 665.2 94.4C665.2 100.8 660.4 104.8 655.2 104.8C648.8 104.8 644.4 100.4 637.6 94C614.4 70 582 47.6 544 47.6C519.6 47.6 504.4 58.8 504.4 77.2C504.4 101.2 529.2 108 572.4 120.8C631.2 137.2 690 157.2 690 222.4C690 278.4 644.4 312.4 578.8 312.4C541.6 312.4 517.6 301.2 506.8 301.2C495.6 301.2 493.6 314.8 483.2 314.8Z" fill="#060606"/>
</svg>
